<?xml version="1.0" standalone="no"?>
<!DOCTYPE svg PUBLIC "-//W3C//DTD SVG 20010904//EN"
 "http://www.w3.org/TR/2001/REC-SVG-20010904/DTD/svg10.dtd">
<svg version="1.0" xmlns="http://www.w3.org/2000/svg"
 width="1048.000000pt" height="1262.000000pt" viewBox="0 0 1048.000000 1262.000000"
 preserveAspectRatio="xMidYMid meet">

<g transform="translate(0.000000,1262.000000) scale(0.100000,-0.100000)"
fill="#000000" stroke="none">
<path d="M5025 11234 c-536 -32 -946 -108 -1400 -259 -431 -144 -866 -357
-1238 -607 -540 -363 -1043 -869 -1404 -1413 -493 -741 -775 -1570 -844 -2475
-17 -227 -7 -707 20 -933 136 -1139 618 -2159 1404 -2973 814 -843 1885 -1379
3047 -1523 626 -78 1241 -41 1860 110 199 49 555 166 740 244 1487 627 2590
1905 2986 3462 54 212 97 445 125 680 27 226 37 706 20 933 -95 1253 -609
2380 -1486 3255 -409 410 -827 711 -1335 964 -579 288 -1160 454 -1805 516
-156 15 -570 26 -690 19z m169 -296 c3 -29 6 -97 6 -150 0 -95 -1 -98 -22 -98
-15 0 -55 32 -120 97 l-98 98 0 -103 c0 -101 0 -102 -24 -102 -24 0 -24 2 -31
113 -9 140 -5 181 16 185 9 2 59 -38 118 -94 l101 -96 0 94 c0 99 3 108 30
108 13 0 19 -12 24 -52z m336 12 c0 -30 -1 -30 -54 -30 l-53 0 -7 -37 c-3 -21
-6 -75 -6 -121 l0 -83 -27 3 -28 3 4 114 c3 129 3 131 -71 131 -48 0 -53 4
-42 34 5 14 28 16 145 16 l139 0 0 -30z m-684 -67 c4 -43 8 -109 8 -148 1 -65
-1 -70 -21 -73 -14 -2 -23 2 -24 10 0 7 -6 72 -13 143 -7 72 -11 133 -9 138 2
4 15 7 28 7 22 0 24 -5 31 -77z m979 -36 c44 -58 83 -109 86 -112 4 -3 12 38
19 93 l12 98 29 -4 c23 -3 28 -8 24 -26 -2 -11 -9 -64 -15 -116 -22 -193 -27
-195 -142 -40 -45 61 -83 108 -86 106 -2 -3 -9 -44 -15 -93 -12 -86 -12 -88
-41 -91 -28 -4 -29 -3 -23 35 3 21 11 83 18 138 11 99 22 129 43 122 6 -2 47
-51 91 -110z m-1162 89 c49 -20 67 -48 80 -120 9 -56 9 -70 -6 -100 -22 -47
-53 -65 -131 -77 -57 -9 -71 -8 -104 8 -47 23 -72 73 -74 150 -3 103 26 127
195 152 4 0 22 -5 40 -13z m-304 -83 c5 -21 17 -75 26 -121 15 -75 15 -85 1
-107 -8 -13 -23 -26 -33 -29 -52 -16 -198 -44 -205 -40 -4 3 -8 16 -8 28 0 22
8 25 88 41 49 9 95 21 102 25 11 7 9 27 -8 109 -28 128 -28 131 3 131 20 0 26
-7 34 -37z m1925 13 c64 -14 65 -20 33 -176 -22 -113 -23 -115 -51 -118 -28
-4 -29 -3 -23 36 l7 39 -83 17 c-45 9 -85 16 -89 16 -4 0 -10 -15 -13 -33 -6
-30 -10 -33 -32 -29 -23 4 -25 8 -20 46 20 140 45 187 112 211 40 14 59 13
159 -9z m158 -45 c4 -3 14 -51 24 -106 9 -55 19 -102 21 -105 3 -3 39 32 81
78 64 69 81 81 100 76 12 -3 22 -10 22 -15 0 -10 -188 -221 -208 -233 -26 -15
-39 17 -66 159 -32 172 -32 168 -3 160 12 -4 25 -10 29 -14z m-2532 -40 c0 -5
3 -16 6 -25 4 -11 -15 -21 -88 -43 -78 -24 -94 -33 -96 -51 -5 -34 20 -37 106
-12 90 26 122 19 147 -30 20 -39 12 -84 -18 -105 -30 -21 -214 -78 -227 -70
-5 3 -10 15 -10 25 0 14 22 25 103 52 84 29 103 38 105 56 5 34 -23 38 -97 14
-37 -12 -78 -22 -90 -22 -33 0 -81 52 -81 88 0 47 28 71 120 102 91 30 120 35
120 21z m3004 -98 c43 -15 81 -33 83 -40 3 -8 -7 -48 -22 -91 -67 -186 -64
-180 -85 -175 -28 7 -32 17 -20 49 6 15 9 28 8 30 -2 1 -41 17 -86 33 l-83 31
-11 -30 c-10 -30 -22 -35 -52 -24 -13 5 -11 17 14 84 38 103 47 117 95 140 52
26 65 25 159 -7z m-3295 -53 c31 -32 59 -117 53 -161 -2 -16 -15 -39 -28 -53
-25 -24 -165 -86 -195 -86 -11 0 -30 37 -62 118 -26 64 -47 125 -47 134 0 11
24 26 78 46 122 47 155 47 201 2z m3491 -20 c12 -7 7 -26 -33 -116 -26 -59
-46 -108 -45 -109 5 -2 124 -54 162 -70 33 -14 35 -17 25 -38 -6 -12 -13 -23
-14 -25 -1 -1 -54 19 -116 47 -82 35 -115 55 -117 68 -2 11 14 57 34 104 20
46 43 99 50 117 15 33 28 39 54 22z m-3780 -185 c58 -129 58 -130 37 -142 -12
-6 -25 -9 -29 -5 -4 4 -32 63 -63 132 -53 116 -55 125 -39 137 10 7 22 12 27
10 5 -1 35 -61 67 -132z m-150 45 c28 -15 60 -74 60 -112 0 -44 -24 -70 -100
-108 -57 -29 -60 -29 -70 -11 -5 11 -10 22 -10 25 0 3 27 19 59 36 33 18 62
39 65 47 7 18 -18 69 -39 77 -17 6 -158 -60 -153 -72 2 -4 26 -51 53 -105 42
-82 48 -99 35 -107 -30 -19 -41 -8 -90 90 -71 142 -69 156 40 215 66 35 116
43 150 25z m2345 -20 c611 -41 1174 -197 1710 -473 1229 -636 2084 -1826 2290
-3187 47 -308 59 -756 30 -1066 -192 -2008 -1752 -3622 -3750 -3878 -1635
-210 -3234 518 -4150 1889 -406 607 -640 1267 -710 1999 -17 185 -20 567 -4
753 102 1243 730 2374 1732 3120 818 609 1838 910 2852 843z m2097 -97 c78
-44 85 -50 76 -68 -6 -11 -12 -22 -14 -24 -2 -2 -41 18 -87 43 -47 25 -90 46
-95 46 -13 0 -92 -141 -86 -152 3 -4 43 -28 89 -54 47 -25 85 -49 85 -53 0 -4
-6 -15 -13 -25 -12 -17 -19 -15 -98 29 -104 58 -119 71 -119 107 0 33 70 164
103 191 29 25 54 18 159 -40z m-4760 -20 c8 -10 43 -65 77 -122 58 -98 62
-106 45 -118 -25 -18 -33 -16 -46 12 -6 14 -15 25 -20 25 -18 0 -148 -82 -148
-94 0 -6 7 -21 15 -33 13 -19 13 -22 -10 -37 -23 -15 -24 -15 -59 43 -96 157
-87 209 45 293 41 26 77 47 80 47 3 1 13 -7 21 -16z m5010 -124 c120 -77 128
-155 28 -261 -49 -51 -100 -53 -172 -7 -120 77 -128 155 -28 261 49 51 100 53
172 7z m-5272 -111 c33 -45 39 -91 15 -125 -13 -19 -13 -21 8 -27 12 -3 42 -6
67 -6 l45 -1 -30 -25 c-28 -24 -36 -25 -106 -21 -41 3 -83 0 -93 -5 -13 -7
-21 -5 -31 9 -8 10 -14 20 -15 23 0 3 23 21 51 40 28 19 54 41 59 50 10 19 -5
59 -25 66 -15 6 -145 -80 -145 -96 0 -5 29 -50 65 -101 64 -91 65 -92 44 -107
-12 -8 -24 -11 -30 -5 -27 27 -149 210 -149 224 0 23 179 148 212 149 21 0 35
-10 58 -42z m5498 -41 c8 -9 6 -42 -3 -112 -23 -161 -33 -151 95 -98 168 70
179 51 59 -103 -44 -57 -84 -104 -88 -104 -4 0 -15 6 -25 13 -16 12 -13 18 34
80 55 73 57 72 -54 23 -64 -28 -92 -32 -98 -14 -3 7 -1 37 4 68 4 30 10 73 13
95 l6 39 -51 -67 c-44 -59 -53 -66 -70 -57 -34 18 -37 12 98 183 55 70 63 75
80 54z m-5921 -206 c11 -17 4 -27 -65 -87 -42 -37 -76 -70 -74 -73 2 -3 28
-34 58 -69 64 -71 48 -74 159 22 l56 49 20 -20 20 -20 -85 -72 c-115 -97 -123
-97 -228 22 -55 63 -76 93 -70 103 11 20 175 163 187 163 6 1 16 -8 22 -18z
m6241 -44 c8 -9 4 -43 -14 -121 -13 -60 -24 -114 -24 -122 0 -9 29 -3 102 22
112 38 146 42 154 19 6 -15 -6 -29 -139 -173 l-50 -54 -20 20 -20 20 58 61
c32 34 56 61 53 61 -2 0 -44 -14 -93 -30 -120 -40 -125 -36 -96 86 11 48 19
89 17 91 -1 2 -27 -24 -56 -58 l-53 -61 -20 21 -20 20 38 43 c72 81 157 168
165 168 4 0 12 -6 18 -13z m-6168 -77 c0 -4 -28 -30 -62 -59 -61 -52 -61 -52
-81 -32 -20 19 -20 19 14 49 99 85 92 82 112 65 9 -9 17 -19 17 -23z m-306
-93 c8 -13 3 -24 -29 -57 l-39 -40 82 -83 83 -83 -21 -19 c-21 -19 -21 -18
-103 63 l-83 82 -34 -35 c-38 -39 -51 -43 -70 -19 -12 13 0 29 86 115 54 54
103 98 108 96 5 -2 14 -11 20 -20z m6804 -171 c34 -17 132 -120 132 -138 0 -7
-45 -55 -101 -107 -100 -93 -101 -94 -120 -74 -19 19 -19 19 5 43 l25 23 -61
69 -61 69 -27 -26 -27 -25 -19 21 -19 21 65 60 c36 33 74 64 85 69 32 13 94
10 123 -5z m-6938 -145 l95 -90 -20 -20 -20 -20 -108 101 c-103 96 -107 101
-91 119 21 24 26 21 144 -90z m-95 -68 c58 -48 105 -93 105 -99 0 -6 -7 -17
-15 -24 -12 -10 -23 -6 -59 24 l-44 36 -49 -58 c-71 -82 -70 -78 -22 -121 38
-34 42 -40 30 -55 -7 -9 -18 -16 -22 -16 -11 0 -219 172 -219 180 0 4 6 15 14
25 13 18 16 17 60 -20 26 -21 50 -34 55 -29 4 5 30 36 59 70 l51 61 -45 37
c-37 32 -43 40 -34 57 6 10 15 19 21 19 5 0 57 -39 114 -87z m7242 1 c3 -9 -2
-71 -11 -139 -9 -67 -16 -128 -16 -135 0 -6 34 17 76 51 l76 62 20 -20 20 -21
-107 -86 c-102 -82 -139 -100 -147 -74 -2 6 4 70 14 142 9 72 18 135 18 139 0
5 -33 -19 -74 -52 -41 -34 -79 -61 -85 -61 -6 0 -15 9 -21 19 -9 17 4 30 98
105 59 47 113 86 120 86 7 0 15 -7 19 -16z m-7475 -281 c93 -93 114 -126 86
-136 -7 -2 -55 -2 -106 1 l-92 5 39 -88 c39 -87 42 -115 15 -115 -18 0 -264
112 -264 120 0 3 6 15 14 25 13 19 16 18 93 -18 43 -20 82 -37 85 -37 4 0 -7
31 -24 69 -42 95 -38 101 64 101 l82 0 -62 63 c-34 34 -62 67 -62 73 0 10 20
34 29 34 3 0 50 -44 103 -97z m7744 -77 c80 -116 72 -173 -30 -235 -92 -55
-134 -41 -212 72 -30 44 -53 86 -50 92 7 19 209 155 225 152 7 -1 38 -37 67
-81z m-8579 -2547 c114 -55 168 -215 112 -334 -38 -80 -138 -145 -223 -145
-86 0 -180 54 -223 128 -24 40 -28 58 -28 122 0 84 18 131 68 181 78 78 192
97 294 48z m9413 1 c92 -47 135 -120 135 -230 0 -64 -4 -82 -28 -122 -43 -74
-137 -128 -223 -128 -48 0 -118 28 -162 65 -146 125 -90 380 95 431 58 16 132
10 183 -16z m-1130 -2914 c0 -6 -27 -45 -60 -88 l-60 -77 66 -51 c37 -27 72
-50 79 -50 6 0 38 36 70 80 56 75 60 79 77 63 10 -9 18 -19 18 -23 0 -10 -109
-154 -127 -167 -9 -7 -27 -13 -39 -13 -22 0 -192 118 -206 144 -5 9 18 48 68
114 68 91 77 100 95 89 10 -6 19 -16 19 -21z m77 -78 c9 -7 0 -26 -35 -73 -49
-67 -62 -75 -82 -50 -13 16 -12 20 43 92 38 50 45 53 74 31z m-239 -183 c42
-35 57 -76 43 -116 l-11 -31 66 7 66 7 -23 -31 c-12 -17 -24 -31 -26 -31 -39
0 -150 -26 -158 -37 -9 -13 -14 -12 -33 4 l-23 18 45 53 c26 30 46 61 46 70 0
18 -28 52 -44 52 -13 0 -116 -114 -116 -128 0 -5 38 -42 85 -82 70 -61 83 -76
75 -91 -6 -10 -14 -20 -18 -23 -10 -6 -224 183 -220 194 2 5 38 50 81 99 88
102 111 111 165 66z m-6820 -107 c11 -11 11 -31 -3 -226 l-4 -64 75 68 c75 66
76 67 95 48 19 -20 18 -21 -87 -117 -58 -54 -111 -96 -117 -94 -9 3 -12 46
-10 151 l1 147 -74 -67 c-71 -63 -76 -66 -89 -48 -8 11 -15 21 -15 24 0 8 199
190 208 190 5 0 13 -5 20 -12z m6642 -211 c103 -98 103 -98 83 -118 -19 -20
-20 -19 -127 82 -103 98 -106 102 -90 121 10 10 21 17 24 16 4 -2 54 -47 110
-101z m-147 -8 c73 -38 104 -106 71 -157 -23 -34 -97 -102 -112 -102 -6 0 -16
8 -21 19 -9 15 -2 26 39 64 28 26 50 54 50 63 0 22 -38 64 -57 64 -21 0 -123
-91 -123 -109 0 -9 35 -51 77 -93 l77 -78 -20 -20 -20 -21 -87 90 c-109 113
-111 128 -34 202 56 55 104 89 125 89 7 0 23 -5 35 -11z m-6186 -96 l104 -96
-20 -21 -21 -20 -40 39 -40 39 -82 -88 -81 -87 -21 20 -20 21 55 57 c30 32 65
70 79 86 l24 27 -37 38 c-20 21 -37 42 -37 48 0 10 20 34 28 34 2 0 51 -44
109 -97z m5997 -214 c81 -103 86 -112 69 -125 -10 -7 -21 -14 -24 -14 -3 0
-27 27 -53 60 -26 33 -49 60 -50 60 -2 0 3 -41 11 -91 11 -68 12 -94 3 -104
-12 -15 -22 -12 -138 34 -59 23 -59 21 0 -50 43 -53 46 -64 19 -79 -17 -9 -30
4 -105 98 -47 59 -86 113 -86 120 0 27 36 23 141 -18 61 -23 112 -40 113 -38
2 1 -5 55 -14 118 -10 63 -15 120 -13 127 12 32 44 7 127 -98z m-5734 -169
c33 -27 34 -30 18 -46 -16 -16 -21 -14 -93 41 -71 55 -74 59 -59 76 16 18 18
17 58 -12 22 -16 57 -43 76 -59z m5360 30 c9 -17 1 -25 -67 -71 -43 -28 -82
-55 -86 -59 -9 -8 80 -150 95 -150 5 0 45 25 90 55 74 49 83 53 94 37 8 -9 14
-20 14 -25 0 -8 -177 -127 -190 -127 -33 0 -63 29 -119 114 -35 52 -61 100
-59 105 4 14 189 140 205 140 7 1 17 -8 23 -19z m-4980 -132 c110 -69 103 -62
83 -87 l-18 -21 -79 50 c-83 54 -109 59 -114 23 -3 -18 10 -31 66 -67 38 -25
72 -53 76 -62 28 -73 -34 -149 -101 -123 -33 12 -193 112 -193 120 0 3 6 14
14 24 13 18 18 16 106 -40 72 -45 96 -56 109 -48 30 19 16 42 -54 90 -42 29
-73 58 -79 75 -20 56 38 125 94 112 14 -3 54 -24 90 -46z m5028 22 c11 -18 6
-24 -58 -67 -68 -44 -71 -46 -85 -27 -8 10 -14 21 -14 24 -1 7 122 89 134 89
6 1 16 -8 23 -19z m-4744 -186 c92 -55 109 -109 63 -200 -50 -98 -105 -116
-204 -65 -76 38 -103 71 -103 123 0 51 45 135 85 160 40 25 96 19 159 -18z
m4376 -54 c11 -20 16 -16 -120 -92 -32 -19 -35 -19 -47 -2 -7 10 -13 20 -13
23 0 6 150 89 162 90 4 1 12 -8 18 -19z m-4170 -50 c12 -7 7 -26 -33 -117 -26
-59 -44 -109 -39 -111 4 -1 45 -19 92 -40 83 -37 99 -53 81 -81 -13 -19 -235
80 -239 107 -4 25 97 252 112 252 6 0 18 -4 26 -10z m3828 -124 c29 -65 52
-125 52 -133 0 -29 -32 -23 -160 30 -72 31 -129 50 -127 44 3 -7 21 -49 40
-93 l35 -82 -24 -11 c-28 -12 -28 -12 -93 141 -65 153 -60 157 94 92 61 -25
120 -50 132 -54 21 -9 20 -5 -14 73 -19 45 -37 87 -39 93 -5 12 38 35 47 25 3
-3 29 -59 57 -125z m-3467 -25 c151 -52 147 -50 142 -72 -3 -11 -9 -22 -13
-24 -5 -3 -53 11 -107 30 -54 19 -103 35 -109 35 -10 0 -70 -157 -63 -165 3
-2 41 -17 86 -34 l81 -30 11 30 c9 25 8 31 -7 36 -95 34 -107 41 -104 64 1 13
4 24 6 27 10 9 171 -57 174 -71 5 -24 -39 -138 -55 -144 -8 -3 -48 7 -91 22
-172 62 -178 70 -132 196 27 74 65 129 89 129 4 0 45 -13 92 -29z m3108 -35
c34 -33 65 -126 57 -171 -9 -47 -50 -82 -123 -105 -98 -30 -146 -11 -183 74
-47 107 -18 177 90 216 70 25 123 20 159 -14z m-2717 -84 c65 -28 85 -73 67
-155 -14 -69 -54 -122 -98 -132 -33 -7 -142 19 -176 41 -34 22 -49 67 -42 124
8 65 33 117 66 136 34 19 124 13 183 -14z m2411 -111 c39 -137 39 -156 -3
-148 -22 3 -96 267 -78 279 31 20 43 1 81 -131z m-113 -27 c31 -133 33 -164 8
-164 -7 0 -64 34 -127 75 -63 41 -116 73 -118 71 -2 -1 6 -43 18 -91 21 -91
18 -110 -17 -103 -15 2 -24 29 -47 131 -29 126 -30 157 -4 157 7 0 64 -33 127
-74 63 -41 116 -74 117 -73 1 1 -7 38 -17 82 -27 114 -27 115 21 124 4 0 21
-60 39 -135z m-2106 -19 l30 -108 25 30 c14 16 47 56 73 90 40 52 50 60 72 56
14 -3 26 -8 26 -11 0 -11 -186 -251 -199 -257 -8 -3 -20 0 -26 7 -11 12 -85
279 -85 306 0 6 10 8 28 3 25 -7 29 -16 56 -116z m1762 -50 c30 -157 30 -162
-1 -167 -14 -3 -25 -5 -25 -4 0 0 -11 62 -25 136 -31 168 -31 162 2 158 26 -3
28 -7 49 -123z m-139 103 c9 -16 42 -270 36 -280 -2 -5 -15 -8 -28 -8 -22 0
-24 5 -30 68 -4 37 -10 71 -13 76 -3 5 -19 -24 -36 -65 -38 -90 -43 -99 -61
-99 -8 0 -38 32 -66 70 -28 39 -53 70 -56 70 -2 0 -2 -33 2 -74 7 -71 6 -73
-16 -79 -13 -3 -25 -5 -26 -3 -2 2 -11 62 -20 134 -25 200 -9 209 101 60 73
-99 76 -101 85 -75 6 15 24 59 41 99 48 112 68 136 87 106z m-443 -42 c58 -24
76 -58 76 -146 0 -68 -3 -80 -25 -104 -33 -35 -65 -46 -136 -46 -102 0 -141
34 -153 133 -11 103 29 158 123 168 31 3 62 7 69 8 7 0 27 -5 46 -13z m-373
-6 c19 -6 46 -22 60 -36 21 -23 24 -35 24 -105 0 -76 -1 -80 -33 -111 -32 -33
-33 -33 -130 -33 -144 0 -136 -9 -127 148 4 72 9 135 12 140 6 10 152 9 194
-3z m-400 -90 c3 0 4 -12 1 -26 -4 -20 -9 -24 -26 -21 -11 3 -52 9 -89 12 -68
7 -85 19 -74 49 4 11 20 11 94 0 48 -8 91 -14 94 -14z"/>
<path d="M4546 10880 c-44 -8 -66 -31 -66 -69 0 -46 20 -101 42 -112 26 -14
114 -4 147 18 21 13 23 21 19 74 -7 93 -33 110 -142 89z"/>
<path d="M6124 10816 c-28 -20 -49 -75 -31 -81 40 -13 163 -33 169 -27 3 4 9
28 13 53 8 53 5 56 -78 65 -38 4 -58 1 -73 -10z"/>
<path d="M6772 10643 c-7 -3 -20 -18 -28 -35 -19 -37 -18 -38 83 -72 l72 -24
15 39 c9 22 16 46 16 53 0 26 -118 55 -158 39z"/>
<path d="M3480 10593 c-19 -8 -45 -19 -57 -24 l-22 -8 34 -83 c18 -46 35 -83
37 -83 1 1 32 11 66 24 78 29 92 51 71 113 -25 77 -58 92 -129 61z"/>
<path d="M4980 10324 c-412 -36 -719 -96 -1040 -201 -1529 -503 -2645 -1851
-2850 -3442 -117 -908 62 -1832 508 -2616 64 -112 221 -352 294 -449 680 -896
1672 -1483 2766 -1636 426 -59 892 -52 1317 21 1161 198 2207 904 2838 1914
182 291 357 678 456 1008 122 405 175 771 174 1217 0 377 -36 675 -123 1021
-399 1591 -1708 2814 -3320 3103 -254 46 -388 57 -690 61 -157 1 -305 1 -330
-1z m540 -1275 c140 -259 260 -472 265 -474 6 -1 87 -8 180 -14 661 -43 1069
-230 1344 -617 188 -264 322 -686 372 -1169 6 -60 12 -111 14 -113 1 -1 213
-118 471 -258 258 -141 470 -257 472 -259 1 -1 -201 -114 -450 -250 -249 -137
-459 -253 -466 -260 -9 -8 -16 -63 -22 -166 -48 -762 -259 -1184 -735 -1464
-244 -144 -626 -255 -1015 -295 -63 -7 -132 -15 -153 -18 l-38 -7 -257 -467
c-141 -258 -259 -468 -262 -468 -3 1 -118 209 -256 463 l-251 462 -94 7 c-338
24 -536 57 -732 122 -73 24 -164 59 -203 79 -389 196 -639 541 -774 1072 -39
153 -84 416 -96 561 l-7 81 -483 264 c-394 215 -481 265 -466 274 9 5 226 125
482 265 l465 256 16 145 c71 615 237 1038 519 1319 262 262 604 393 1150 440
63 5 140 10 170 10 l55 0 260 475 c143 261 262 475 265 475 3 0 120 -212 260
-471z"/>
<path d="M4705 8253 c-471 -860 -555 -1008 -585 -1028 -19 -13 -471 -262
-1005 -555 -533 -292 -974 -535 -978 -540 -5 -4 444 -255 998 -556 l1007 -549
544 -1000 c300 -550 548 -1003 552 -1007 4 -3 257 448 562 1004 l555 1011 999
548 c550 302 1004 553 1009 558 5 5 -408 236 -998 557 l-1005 548 -542 993
c-297 546 -546 999 -552 1007 -9 11 -126 -196 -561 -991z"/>
<path d="M4415 8424 c-449 -49 -742 -169 -970 -399 -248 -248 -399 -625 -470
-1169 -8 -66 -14 -120 -13 -121 6 -5 682 371 685 381 2 6 -50 195 -117 419
-66 225 -118 411 -115 413 3 3 193 -49 422 -116 327 -95 420 -119 429 -109 9
9 331 593 383 695 12 22 11 22 -46 21 -32 -1 -116 -8 -188 -15z"/>
<path d="M6047 8083 c107 -197 197 -360 199 -362 2 -2 186 49 409 114 223 65
407 116 410 113 4 -4 -197 -709 -230 -805 -4 -11 712 -410 720 -401 6 6 -25
222 -50 356 -134 702 -450 1097 -1002 1252 -157 44 -469 90 -615 90 l-36 0
195 -357z"/>
<path d="M7208 5357 c-201 -111 -369 -205 -373 -208 -3 -4 49 -192 115 -419
67 -226 120 -413 118 -415 -2 -2 -188 50 -413 116 -225 65 -412 119 -415 119
-4 0 -82 -138 -175 -307 -93 -170 -182 -332 -199 -362 l-30 -54 83 7 c128 10
361 52 509 91 470 124 788 355 960 701 78 156 139 391 166 639 16 147 27 295
23 295 -1 -1 -167 -92 -369 -203z"/>
<path d="M2964 5478 c39 -288 62 -407 112 -581 82 -285 205 -509 374 -677 246
-246 579 -367 1113 -405 l98 -7 -38 69 c-21 38 -112 205 -203 371 -90 166
-169 302 -175 302 -5 0 -194 -54 -420 -119 -225 -66 -411 -118 -413 -117 -2 2
52 189 118 416 67 227 118 416 113 420 -10 9 -673 370 -679 370 -3 0 -3 -19 0
-42z"/>
<path d="M2780 10250 c-24 -16 -50 -37 -57 -46 -17 -23 -17 -75 0 -97 11 -15
19 -12 89 29 l78 46 -28 49 c-15 27 -29 49 -32 48 -3 0 -25 -13 -50 -29z"/>
<path d="M7734 10154 c-65 -68 -59 -115 20 -163 66 -39 85 -36 127 21 28 40
37 81 21 104 -11 17 -104 74 -120 74 -8 0 -30 -16 -48 -36z"/>
<path d="M8638 9413 c-16 -10 -28 -20 -28 -23 0 -3 27 -34 59 -70 l58 -64 41
33 c23 18 42 36 42 40 0 4 -19 26 -43 49 -50 49 -90 60 -129 35z"/>
<path d="M9068 8862 c-37 -26 -65 -52 -63 -59 2 -6 20 -34 40 -62 31 -43 42
-51 69 -51 36 0 97 40 108 70 4 11 4 30 -1 43 -12 29 -69 107 -79 106 -4 0
-37 -21 -74 -47z"/>
<path d="M3036 2058 c-8 -13 -22 -40 -32 -60 -16 -35 -16 -38 0 -63 10 -15 40
-37 68 -50 67 -31 94 -22 129 46 25 49 24 71 -3 96 -60 55 -137 69 -162 31z"/>
<path d="M6701 1768 c-63 -32 -69 -46 -47 -113 23 -73 46 -85 120 -62 72 23
90 45 83 98 -12 91 -72 120 -156 77z"/>
<path d="M3988 1700 c-26 -16 -53 -116 -40 -146 11 -23 89 -54 138 -54 47 0
91 109 65 159 -17 30 -133 59 -163 41z"/>
<path d="M5356 1519 c-22 -17 -26 -28 -26 -73 0 -80 16 -96 101 -96 56 0 73 4
89 20 28 28 28 108 -1 144 -18 23 -28 26 -78 26 -44 0 -65 -5 -85 -21z"/>
<path d="M4990 1440 l0 -90 73 0 c91 0 106 12 108 90 3 73 -18 90 -112 90
l-69 0 0 -90z"/>
</g>
</svg>
