<svg xmlns="http://www.w3.org/2000/svg" viewBox="0 0 30 30" opacity="0.67">
    <circle cx="15" cy="15" r="15" mask="url(#cut)" fill="#237"/>
    <mask id="cut">
    <circle cx="15" cy="15" r="15" fill="white"/>
    <g fill="black">
    <circle cx="15" cy="15" r="12.25" fill="transparent" stroke="black" stroke-width="0.5"/>
    <circle cx="1.15" cy="15" r="0.9" id="dot"/>
    <use href="#dot" transform="rotate(180,15,15)"/>
    <path d="M 15,5
    l 3.25,5 2,-0.5 -0.5,2 5,3.25
     -5,3.25 0.5,2 -2,-0.5 -3.5,5
     -3.25,-5 -2,0.5 0.5,-2 -5,-3.5
     5,-3.25 -0.5,-2 2,0.5z"
    />
    <path d="M 15,7.25
    c 7.5,0 7.5,2 7.5,7.5
    0,7.5 -2,7.5 -7.5,7.5
    -7.5,0 -7.5,-2 -7.5,-7.5
    0,-7.5 2,-7.5 7.5,-7.5" fill="transparent" stroke="black" stroke-width="0.4"/>
    </g>
    </mask>
</svg>
